<svg width="25" height="24" viewBox="0 0 25 24" fill="none" xmlns="http://www.w3.org/2000/svg">
<g clip-path="url(#clip0_321_3874)">
<path fill-rule="evenodd" clip-rule="evenodd" d="M10.6066 4.68862C11.8809 5.52302 12.8109 6.78962 13.2254 8.25527C13.6399 9.72092 13.5111 11.287 12.8626 12.6652C14.0205 13.5567 15.4299 14.0606 16.8905 14.1052C18.3511 14.1498 19.7886 13.7328 20.9987 12.9136C22.2087 12.0944 23.1298 10.9146 23.6309 9.54187C24.132 8.16918 24.1877 6.67346 23.79 5.26732C23.3923 3.86118 22.5615 2.61618 21.4156 1.70928C20.2698 0.80239 18.8672 0.279756 17.4073 0.215673C15.9475 0.151589 14.5045 0.549317 13.2836 1.35232C12.0627 2.15532 11.126 3.32274 10.6066 4.68862ZM17.1055 6.51605C17.6969 6.51605 18.1769 6.99605 18.1769 7.58748V10.6629C18.1769 10.9471 18.064 11.2196 17.8631 11.4205C17.6622 11.6215 17.3897 11.7343 17.1055 11.7343C16.8213 11.7343 16.5488 11.6215 16.3479 11.4205C16.1469 11.2196 16.0341 10.9471 16.0341 10.6629V7.58748C16.0341 6.99605 16.5141 6.51605 17.1055 6.51605ZM15.8489 3.80748C15.8489 4.61491 16.5175 4.96976 16.9889 5.02119L17.1089 5.02805C17.5769 5.02805 18.3672 4.68519 18.3672 3.80748C18.3672 2.99833 17.6986 2.64348 17.2272 2.59205L17.1072 2.58519C16.6392 2.58519 15.8489 2.92805 15.8489 3.80748ZM7.13521 14.1583C7.69152 14.1696 8.24449 14.0698 8.76173 13.8646C9.27898 13.6595 9.7501 13.3533 10.1475 12.9638C10.5449 12.5744 10.8607 12.1096 11.0762 11.5966C11.2917 11.0836 11.4027 10.5328 11.4027 9.97633C11.4027 9.41991 11.2917 8.86907 11.0762 8.35609C10.8607 7.8431 10.5449 7.37827 10.1475 6.98882C9.7501 6.59937 9.27898 6.29313 8.76173 6.08802C8.24449 5.88292 7.69152 5.78307 7.13521 5.79434C6.04073 5.8165 4.99856 6.26683 4.23237 7.0487C3.46617 7.83056 3.03702 8.88164 3.03702 9.97633C3.03702 11.071 3.46617 12.1221 4.23237 12.904C4.99856 13.6858 6.04073 14.1362 7.13521 14.1583ZM0.166635 22.5206C0.163792 20.7707 0.819444 19.0837 2.00329 17.795C3.18714 16.5063 4.81252 15.7101 6.55642 15.5648C8.30031 15.4195 10.0351 15.9356 11.4159 17.0105C12.7968 18.0855 13.7226 19.6406 14.0095 21.3669H22.8501C23.1911 21.3669 23.5181 21.5024 23.7592 21.7435C24.0003 21.9846 24.1358 22.3116 24.1358 22.6526C24.1358 22.9936 24.0003 23.3206 23.7592 23.5618C23.5181 23.8029 23.1911 23.9383 22.8501 23.9383H1.48664C1.16113 23.9383 0.847775 23.8147 0.609793 23.5926C0.371811 23.3706 0.226918 23.0665 0.204349 22.7418C0.180306 22.6705 0.168144 22.5958 0.168349 22.5206H0.166635Z" fill="#36715A"/>
</g>
<defs>
<clipPath id="clip0_321_3874">
<rect width="24" height="24" fill="white" transform="translate(0.166626)"/>
</clipPath>
</defs>
</svg>
